<?xml version="1.0" encoding="UTF-8"?>
<svg id="Layer_1" data-name="Layer 1" xmlns="http://www.w3.org/2000/svg" viewBox="0 0 6321.26 6321.26">
  <defs>
    <style>
      .cls-1 {
        fill: #fff;
      }

      .cls-2 {
        fill: #72c8f1;
      }

      .cls-3 {
        fill: #363c3d;
      }

      .cls-4 {
        fill: #373b3c;
      }
    </style>
  </defs>
  <rect class="cls-1" width="6321.26" height="6321.26"/>
  <path class="cls-3" d="M2533.29,4167.41v-1164.45h-327.46V1976.86H502.27v2646.35h2031.02v-455.8h0ZM958.07,2379.89h892.6v623.08h-762.42v395.76h1066.7v768.69H958.07v-1787.53Z"/>
  <path class="cls-4" d="M3850.18,3717.68h-1133.47v270.35h0v647.49h1503.54v-917.85h-370.07Zm0,578.65h-820.76v-308.3h820.76v308.3Z"/>
  <path class="cls-2" d="M2716.7,3601.12l414.22,10.98,308.87-331.33,64.57,38.44-243.47,291.06s-4.22,5.05-8.45,10.1c4.24-.02,8.49-.03,8.49-.03l891.49-3.66,67.82-107.08-327.8-210.52-108,147.36-86.04-50.34,108-150.11-484.18-302.04-605.52,657.17"/>
  <path class="cls-2" d="M5322.09,4108.14v-186.9l-324.64-86.13-2.21,463.78h-192.14v-516.78l-362.19-86.13v939.56h1378.08v-590.62l-335.69-86.13v340.1h-161.22v-190.74Z"/>
</svg>